<?xml version="1.0" encoding="utf-8"?>
<!-- Generator: Adobe Illustrator 23.0.1, SVG Export Plug-In . SVG Version: 6.00 Build 0)  -->
<svg version="1.1" id="Layer_1" xmlns="http://www.w3.org/2000/svg" xmlns:xlink="http://www.w3.org/1999/xlink" x="0px" y="0px"
	 viewBox="0 0 250 250" style="enable-background:new 0 0 250 250;" xml:space="preserve">
<style type="text/css">
	.st0{fill:url(#SVGID_1_);}
	.st1{fill:url(#SVGID_2_);}
	.st2{fill:url(#SVGID_3_);}
	.st3{fill:#315838;}
</style>
<linearGradient id="SVGID_1_" gradientUnits="userSpaceOnUse" x1="28.8089" y1="43.5589" x2="127.8388" y2="43.5589">
	<stop  offset="0" style="stop-color:#6A8E76"/>
	<stop  offset="0.9138" style="stop-color:#355F3D"/>
</linearGradient>
<path class="st0" d="M127.8,76.1c-33,0-66,0-99,0c0-21.7,0-43.3,0-65c12.1-0.3,28.8,0.9,46.8,7.2c14.2,5,23.3,11.4,26.1,13
	c4.5,2.7,11.6,7.6,17.3,15.8C127.5,59.2,128,71,127.8,76.1z"/>
<radialGradient id="SVGID_2_" cx="117.6073" cy="125.0809" r="102.1036" gradientUnits="userSpaceOnUse">
	<stop  offset="0" style="stop-color:#77DB75"/>
	<stop  offset="1" style="stop-color:#6BAA5F"/>
</radialGradient>
<path class="st1" d="M28.8,11.3C28.8,11.3,28.8,11.3,28.8,11.3c0,0,80.5,0.3,115.5,0c1.1,0,2.2,0,4.3,0.1c0,0,4.1,0.1,7.8,0.5
	c4.5,0.4,10.5,1,17.2,3.4c2.1,0.7,6.8,2.6,12,6.1c1.5,1,7,4.9,12,11.7c1.2,1.7,3.5,4.7,5.3,9.2c2.3,5.5,2.7,9.9,3.1,15.4
	c0.2,2.5,0.6,7.1,0,12.8c-1.1,10.6-4.6,18.3-7.7,25c-3.9,8.5-8.1,14.2-9.2,15.8c-1.1,1.4-1.8,2.4-3.4,4.2
	c-2.3,2.8-8.9,10.3-17.8,18.9c0,0-7.4,7.1-15.9,14.1c-4.8,4-13.9,10.9-26.5,20.3c-22.4,16.7-56,41.2-96.7,70.1l0.3-89
	c7.4-4.4,14.9-9.1,22.5-14c23.2-15.1,43.6-30.6,61.6-45.7c0.1-0.1,3.7-3.5,13.9-13.4c0.2-0.5,0.5-1,0.7-1.6
	c0.1-3.9-0.4-9.4-2.6-15.7c-5.7-16.4-19.4-25.5-24.8-28.8c-6.6-4.3-16-9.6-28.3-13.6C54.5,11.6,38.7,11,28.8,11.3z"/>
<linearGradient id="SVGID_3_" gradientUnits="userSpaceOnUse" x1="168.3391" y1="238.939" x2="168.3391" y2="130.9545">
	<stop  offset="0" style="stop-color:#6AAB76"/>
	<stop  offset="1" style="stop-color:#355F3D"/>
</linearGradient>
<path class="st2" d="M115.5,176.3c9.2,20.9,18.5,41.7,27.7,62.6c26,0,52,0,78,0c-16.6-36-33.1-72-49.7-108
	c-5.8,5.5-10.8,9.7-14.1,12.5c-9.3,7.8-14.9,11.6-29.9,23.3C122.3,170.9,118.1,174.2,115.5,176.3z"/>
<path class="st3" d="M127.9,76.3c-3.3-8.9-9.9-22.3-23.3-34.8C76.3,14.7,38.9,11.8,28.9,11.3c9.1-0.4,16.9,0.3,23.1,1.2
	c6.4,1,11.1,2.2,14,3c5,1.3,12.6,3.3,21.2,7.7c4.5,2.3,8.5,4.7,11.1,6.3c5.3,3.3,8,4.9,11,7.4c7,5.8,10.7,11.5,12.2,14
	c2.3,3.8,3.4,6.9,3.8,7.9c0.2,0.6,0.9,2.7,1.6,5.7C127.4,67.2,128,71.3,127.9,76.3z"/>
<path class="st3" d="M115.5,176.3c2.2-0.9,5.9-2.4,10.3-4.6c4.2-2.1,13.9-7,37.2-24.2c2.8-2,7-5.1,12-9c-1.2-2.5-2.3-5.1-3.5-7.6
	L115.5,176.3z"/>
<rect x="268.8" y="85.7" style="fill:none;" width="100.2" height="254.3"/>
<text transform="matrix(1 0 0 1 268.7823 145.2511)" style="font-family:'ColonnaMT'; font-size:100px;">R</text>
</svg>
