<?xml version="1.0" encoding="utf-8"?>
<!-- Generator: Adobe Illustrator 23.0.1, SVG Export Plug-In . SVG Version: 6.00 Build 0)  -->
<svg version="1.1" id="Layer_1" xmlns="http://www.w3.org/2000/svg" xmlns:xlink="http://www.w3.org/1999/xlink" x="0px" y="0px"
	 viewBox="0 0 250 250" style="enable-background:new 0 0 250 250;" xml:space="preserve">
<style type="text/css">
	.st0{fill:none;}
	.st1{fill:#839788;}
</style>
<polygon class="st0" points="59.14,94.79 50.57,94.79 50.57,94.79 59.14,94.79 "/>
<g>
	<path class="st1" d="M60.95,32.47v180.14h-6.62c-2.57,0-6.62,0.34-12.16,1.03c-4.72,0.68-10.26,1.03-16.63,1.03v-3.08
		c6.57-0.8,12.01-4.38,16.32-10.77c4.31-6.38,6.47-18.68,6.47-36.92V76.05c0-24.84-7.6-39.02-22.79-42.56v-3.08
		C32.11,31.22,43.91,31.9,60.95,32.47z M76.66,212.61h-4.46V32.47c6.16,0,12.73-0.28,19.71-0.85c8.01-0.8,14.52-1.2,19.55-1.2
		c14.06,0,24.53,4.79,31.41,14.36c6.88,9.46,10.31,21.14,10.31,35.04c0,23.59-8.98,38.68-26.94,45.29
		c8.93,1.37,16.42,4.33,22.48,8.89c6.47,4.9,16.27,14.7,29.41,29.4c20.02,22.56,36.33,33.84,48.96,33.84c2.56,0,5.18-0.97,7.85-2.91
		l0.62,3.08c-4.11,5.93-9.8,8.89-17.09,8.89c-7.8,0-15.96-3.25-24.48-9.74c-8.01-6.15-19.96-18.23-35.87-36.23
		c-19.09-21.88-37.67-32.81-55.73-32.81c11.19,3.87,26.33,16.92,45.42,39.14c13.45,15.5,24.22,26.78,32.33,33.84
		c8.21,7.07,16.06,10.6,23.55,10.6v1.54c-3.49,1.37-6.93,2.05-10.31,2.05c-9.96,0-18.58-2.79-25.87-8.37
		c-3.9-3.08-8.85-7.78-14.86-14.1c-6-6.32-13.22-14.5-21.63-24.53c-12.32-14.58-21.45-24.5-27.4-29.74
		c-6.37-5.35-12.57-9.11-18.63-11.28v40.51c0,27.23,7.39,42.04,22.17,44.44v3.08C94.82,213.29,84.66,212.61,76.66,212.61z
		 M84.97,79.47v37.09c6.06,1.71,12.63,2.56,19.71,2.56c23.1,0,34.64-13.33,34.64-39.99c0-24.95-11.45-37.43-34.33-37.43
		c-7.39,0-13.14,1.65-17.24,4.96C85.89,51.22,84.97,62.15,84.97,79.47z M154.71,116.39c6.67-11.73,10.01-24.67,10.01-38.8
		c0-12.87-3.85-25.81-11.55-38.8c17.65,8.32,26.48,21.42,26.48,39.31C179.65,96.22,171.34,108.98,154.71,116.39z"/>
</g>
</svg>
