<?xml version="1.0" encoding="utf-8"?>
<!-- Generator: Adobe Illustrator 23.0.1, SVG Export Plug-In . SVG Version: 6.00 Build 0)  -->
<svg version="1.1" id="Layer_1" xmlns="http://www.w3.org/2000/svg" xmlns:xlink="http://www.w3.org/1999/xlink" x="0px" y="0px"
	 viewBox="0 0 250 250" style="enable-background:new 0 0 250 250;" xml:space="preserve">
<style type="text/css">
	.st0{fill:#783F8E;}
	.st1{fill:none;}
	.st2{fill:#FFFFFF;}
</style>
<circle class="st0" cx="125" cy="125" r="118.7"/>
<polygon class="st1" points="56.1,102.6 48,102.6 48,102.6 "/>
<g>
	<path class="st2" d="M94.1,66.9v116.2h-4.3c-1.7,0-4.3,0.2-7.8,0.7c-3,0.4-6.6,0.7-10.7,0.7v-2c4.2-0.5,7.7-2.8,10.5-6.9
		c2.8-4.1,4.2-12,4.2-23.8V95c0-16-4.9-25.2-14.7-27.5v-2C75.5,66.1,83.1,66.5,94.1,66.9z M104.2,183.1h-2.9V66.9
		c4,0,8.2-0.2,12.7-0.5c5.2-0.5,9.4-0.8,12.6-0.8c9.1,0,15.8,3.1,20.3,9.3c4.4,6.1,6.6,13.6,6.6,22.6c0,15.2-5.8,24.9-17.4,29.2
		c5.8,0.9,10.6,2.8,14.5,5.7c4.2,3.2,10.5,9.5,19,19c12.9,14.6,23.4,21.8,31.6,21.8c1.7,0,3.3-0.6,5.1-1.9l0.4,2
		c-2.7,3.8-6.3,5.7-11,5.7c-5,0-10.3-2.1-15.8-6.3c-5.2-4-12.9-11.8-23.1-23.4c-12.3-14.1-24.3-21.2-35.9-21.2
		c7.2,2.5,17,10.9,29.3,25.2c8.7,10,15.6,17.3,20.9,21.8c5.3,4.6,10.4,6.8,15.2,6.8v1c-2.3,0.9-4.5,1.3-6.6,1.3
		c-6.4,0-12-1.8-16.7-5.4c-2.5-2-5.7-5-9.6-9.1c-3.9-4.1-8.5-9.4-14-15.8c-7.9-9.4-13.8-15.8-17.7-19.2c-4.1-3.5-8.1-5.9-12-7.3
		v26.1c0,17.6,4.8,27.1,14.3,28.7v2C116,183.5,109.4,183.1,104.2,183.1z M109.6,97.2v23.9c3.9,1.1,8.1,1.7,12.7,1.7
		c14.9,0,22.3-8.6,22.3-25.8c0-16.1-7.4-24.1-22.1-24.1c-4.8,0-8.5,1.1-11.1,3.2C110.2,79,109.6,86,109.6,97.2z M154.6,121
		c4.3-7.6,6.5-15.9,6.5-25c0-8.3-2.5-16.6-7.4-25c11.4,5.4,17.1,13.8,17.1,25.4C170.7,108,165.3,116.2,154.6,121z"/>
</g>
</svg>
